<svg xmlns="http://www.w3.org/2000/svg" xmlns:xlink="http://www.w3.org/1999/xlink" width="2384.399" height="310" viewBox="0 0 2384.399 310">
  <defs>
    <linearGradient id="linear-gradient" x1="0.5" x2="0.5" y2="1" gradientUnits="objectBoundingBox">
      <stop offset="0" stop-color="#fff" stop-opacity="0"/>
      <stop offset="1" stop-color="#fff"/>
    </linearGradient>
  </defs>
  <g id="arrows" transform="translate(252.997 -353)">
    <g id="arrow" transform="translate(1871.997 636.167) rotate(180)">
      <path id="top" d="M208.1,130.972h7.638L430.994,0H215.255L0,130.972Z" fill="#233682"/>
      <path id="bottom" d="M222.893,130.972h-7.638L0,0H215.739L430.994,130.972Z" transform="translate(0.003 130.972)" fill="#2869a8"/>
    </g>
    <g id="arrow-2" data-name="arrow" transform="translate(1577.997 636.167) rotate(180)">
      <path id="top-2" data-name="top" d="M208.1,130.972h7.638L430.994,0H215.255L0,130.972Z" fill="#233682"/>
      <path id="bottom-2" data-name="bottom" d="M222.893,130.972h-7.638L0,0H215.739L430.994,130.972Z" transform="translate(0.003 130.972)" fill="#2869a8"/>
    </g>
    <g id="arrow-3" data-name="arrow" transform="translate(1256.997 636.167) rotate(180)">
      <path id="top-3" data-name="top" d="M208.1,130.972h7.638L430.994,0H215.255L0,130.972Z" fill="#233682"/>
      <path id="bottom-3" data-name="bottom" d="M222.893,130.972h-7.638L0,0H215.739L430.994,130.972Z" transform="translate(0.003 130.972)" fill="#2869a8"/>
    </g>
    <g id="arrow-4" data-name="arrow" transform="translate(2131.402 636.167) rotate(180)">
      <path id="top-4" data-name="top" d="M208.1,130.972h7.638L430.994,0H215.255L0,130.972Z" fill="#233682"/>
      <path id="bottom-4" data-name="bottom" d="M222.893,130.972h-7.638L0,0H215.739L430.994,130.972Z" transform="translate(0.003 130.972)" fill="#2869a8"/>
    </g>
    <g id="arrow-5" data-name="arrow" transform="translate(178 636.167) rotate(180)">
      <path id="top-5" data-name="top" d="M208.1,130.972h7.638L430.994,0H215.255L0,130.972Z" fill="#233682"/>
      <path id="bottom-5" data-name="bottom" d="M222.893,130.972h-7.638L0,0H215.739L430.994,130.972Z" transform="translate(0.003 130.972)" fill="#2869a8"/>
    </g>
    <g id="gradient" transform="translate(7 102)">
      <rect id="Rectangle_199" data-name="Rectangle 199" width="310" height="580" transform="translate(1388 251) rotate(90)" fill="url(#linear-gradient)"/>
      <rect id="Rectangle_200" data-name="Rectangle 200" width="310" height="580" transform="translate(1388 251) rotate(90)" fill="url(#linear-gradient)"/>
    </g>
    <g id="gradient-2" data-name="gradient" transform="translate(1061 913.915) rotate(180)">
      <rect id="Rectangle_199-2" data-name="Rectangle 199" width="310" height="440" transform="translate(1248 250.915) rotate(90)" fill="url(#linear-gradient)"/>
      <rect id="Rectangle_200-2" data-name="Rectangle 200" width="310" height="440" transform="translate(1248 250.915) rotate(90)" fill="url(#linear-gradient)"/>
    </g>
  </g>
</svg>
