<svg xmlns:dc="http://purl.org/dc/elements/1.1/" xmlns:cc="http://creativecommons.org/ns#" xmlns:rdf="http://www.w3.org/1999/02/22-rdf-syntax-ns#" xmlns:svg="http://www.w3.org/2000/svg" xmlns="http://www.w3.org/2000/svg" xml:space="preserve" id="svg2" version="1.1" viewBox="56.02 65.67 180.75 97.93"><metadata id="metadata8"><rdf:RDF><cc:Work rdf:about=""><dc:format>image/svg+xml</dc:format><dc:type rdf:resource="http://purl.org/dc/dcmitype/StillImage"/></cc:Work></rdf:RDF></metadata><defs id="defs6"/><g transform="matrix(1.3333333,0,0,-1.3333333,0,223.33333)" id="g10"><g transform="scale(0.1)" id="g12"><path id="path14" style="fill:#1476c6;fill-opacity:1;fill-rule:nonzero;stroke:none" d="m 1339.92,621.621 -28.18,36.5 24.98,27.211 4.28,4.648 h -27 l -0.82,-0.976 -17.98,-21.164 v 43.676 c 0,6.629 -4.07,10.457 -11.14,10.457 h -19.48 v -14.285 h 2.76 c 3.34,0 4.17,-0.442 4.2,-0.469 0.76,-0.356 0.82,-1.758 0.82,-2.348 v -87.699 h 22.84 v 29.168 l 19.14,-27.969 0.82,-1.199 h 28.21 z m -77.28,14.629 -0.21,4.371 -3.86,-2.051 c -5.15,-2.73 -9.73,-4.109 -13.6,-4.109 -5.66,0 -10.08,1.738 -13.51,5.32 -3.47,3.641 -5.15,8.207 -5.15,13.989 0,5.679 1.68,10.171 5.13,13.679 3.44,3.531 7.95,5.242 13.79,5.242 2.83,0 7.06,-1.113 12.56,-3.281 l 3.41,-1.32 0.36,3.629 1.35,13.508 0.23,2.402 -2.34,0.555 c -9.78,2.375 -16.08,3.527 -19.26,3.527 -11.33,0 -20.72,-3.637 -27.91,-10.773 -7.2,-7.129 -10.85,-16.149 -10.85,-26.778 0,-11.59 3.56,-21.039 10.57,-28.09 7.02,-7.07 16.55,-10.629 28.33,-10.629 4.87,0 11.33,1.387 19.75,4.258 l 1.97,0.672 -0.1,2.078 z m -80.75,53.73 h -38.69 l -0.55,-2.058 -11.25,-42.184 c -3.43,12.801 -11.29,42.184 -11.29,42.184 l -0.55,2.058 h -25.22 l -0.57,-2.05 -11.88,-43.258 c -3.28,10.398 -11.23,35.66 -11.23,35.66 -2.48,7.969 -7.36,9.648 -11,9.648 h -21.91 v -14.25 h 9.68 c 1.63,0 2.12,-0.281 2.14,-0.3 0.1,-0.11 0.66,-0.852 1.47,-3.34 0,-0.031 17.53,-53.031 17.53,-53.031 l 0.63,-1.887 h 24.18 l 0.55,2.027 12.29,45.031 c 3.47,-12.871 12.12,-45.019 12.12,-45.019 l 0.55,-2.039 h 23.95 l 0.62,1.918 18.94,59.633 v -2.993 h 4.49 c 3.23,0 3.48,-1.16 3.48,-2.808 v -55.75 h 22.68 v 62.34 c 0,6.64 -4.07,10.468 -11.16,10.468 z m -0.12,30.79 c -12.36,0 -14.19,-7.079 -14.19,-11.29 0,-4.277 1.83,-11.421 14.19,-11.421 12.35,0 14.19,7.144 14.19,11.421 0,4.211 -1.84,11.29 -14.19,11.29 z m -166.2,-57.309 c -6.18,2.687 -8.01,3.73 -8.57,4.129 -1.9,1.289 -2.14,2.43 -2.14,3.301 0,1 0,3.347 6.9,3.347 5.17,0 10.58,-1.449 16.06,-4.297 l 3.61,-1.871 0.43,4.039 1.32,12.704 0.24,2.25 -2.17,0.671 c -8.57,2.676 -14.88,3.977 -19.26,3.977 -8.89,0 -16.138,-2.121 -21.521,-6.301 -5.598,-4.347 -8.438,-9.89 -8.438,-16.531 0,-5.141 1.785,-9.598 5.293,-13.219 2.512,-2.601 6.836,-5.449 13.196,-8.629 6.2,-3.101 8.69,-4.633 9.69,-5.351 2.44,-1.91 2.44,-3.481 2.44,-3.989 0,-1.031 0,-3.742 -7.99,-3.742 -6.183,0 -12.433,1.52 -18.566,4.539 l -3.699,1.813 -0.286,-4.11 -0.937,-13.293 -0.137,-2.097 1.961,-0.711 c 6.66,-2.399 13.996,-3.621 21.814,-3.621 9.53,0 17.15,2.101 22.68,6.261 5.76,4.34 8.68,10.18 8.68,17.36 0,5.59 -1.87,10.351 -5.56,14.148 -3.02,3.032 -7.93,6.032 -15.04,9.223 z m -85.453,-1.16 c 0.762,3.597 1.946,6.679 3.867,8.777 2.403,2.582 5.332,3.852 8.965,3.852 3.516,0 6.297,-1.239 8.496,-3.782 1.817,-2.109 2.891,-5.218 3.535,-8.847 z m 12.969,29.41 c -10.664,0 -19.441,-3.481 -26.133,-10.332 -6.64,-6.84 -10,-15.801 -10,-26.68 0,-12.097 3.457,-21.769 10.274,-28.75 6.855,-6.98 16.386,-10.508 28.347,-10.508 8.996,0 17.031,1.411 23.879,4.188 l 1.738,0.691 v 19.711 l -4.043,-2.109 c -5.761,-2.981 -11.972,-4.5 -18.476,-4.5 -5.762,0 -10.234,1.379 -13.692,4.238 -2.578,2.121 -3.984,5.031 -4.792,8.391 h 46.628 v 8.219 c 0,11.628 -2.988,20.847 -8.878,27.41 -5.973,6.648 -14.344,10.031 -24.852,10.031 z m -71.309,-22.422 36.399,40.984 4.082,4.61 h -28.332 l -0.828,-0.996 -29.035,-34.434 v 24.949 c 0,6.653 -4.043,10.481 -11.114,10.481 h -20.371 v -14.309 h 2.774 c 3.339,0 4.179,-0.437 4.211,-0.457 0.75,-0.359 0.808,-1.894 0.808,-2.351 v -80.594 h 23.692 v 38.988 l 30.457,-37.961 0.832,-1.027 h 30.285 l -3.821,4.539 -40.039,47.578"/><path id="path16" style="fill:#1476c6;fill-opacity:1;fill-rule:nonzero;stroke:none" d="m 709.277,553.719 c 0,3.711 -2.07,5.582 -6.211,5.582 h -6.074 v 8.769 h 34.258 c 3.801,0 6.594,-2.57 8.359,-7.718 l 19.649,-56.321 c 1.25,-3.621 2.129,-8.722 2.668,-15.269 0.437,6.648 1.277,11.738 2.515,15.269 l 23.118,64.039 h 27.207 V 475.879 H 797.48 V 544 c 0,5.41 0.372,10.91 1.114,16.488 -1.582,-6.726 -2.793,-11.199 -3.574,-13.41 l -25.782,-71.199 h -16.191 l -25.234,70.543 c -1.329,3.707 -2.493,8.398 -3.458,14.066 0.665,-9.218 0.997,-14.758 0.997,-16.609 v -68 h -16.075 v 77.84"/><path id="path18" style="fill:#1476c6;fill-opacity:1;fill-rule:nonzero;stroke:none" d="m 874.141,504.469 v 3.582 h -6.145 c -14.234,0 -21.355,-3.891 -21.355,-11.66 0,-3.121 1.062,-5.539 3.203,-7.313 2.129,-1.777 4.758,-2.648 7.871,-2.648 4.98,0 8.996,1.8 12.012,5.441 2.949,3.34 4.414,7.559 4.414,12.598 z m 16.601,-8.821 c 0,-4.867 0.215,-7.699 0.653,-8.488 0.793,-1.68 3.195,-2.512 7.238,-2.512 v -8.769 h -15.02 c -5.39,0 -8.183,2.562 -8.371,7.711 l -0.125,3.18 c -5.762,-8.418 -13.371,-12.622 -22.851,-12.622 -6.543,0 -11.953,1.934 -16.211,5.793 -4.239,3.848 -6.367,9.008 -6.367,15.489 0,10.191 5.371,16.879 16.105,20.09 5.496,1.589 14.949,2.39 28.348,2.39 v 0.922 c 0,9.527 -5.547,14.289 -16.641,14.289 -6.047,0 -12.48,-1.769 -19.309,-5.301 l -0.261,12.301 c 7.89,3.18 15.781,4.758 23.672,4.758 10.117,0 17.48,-2.43 22.089,-7.289 3.731,-3.891 5.989,-9.961 6.778,-18.18 0.176,-1.949 0.273,-9.859 0.273,-23.762"/><path id="path20" style="fill:#1476c6;fill-opacity:1;fill-rule:nonzero;stroke:none" d="m 950.977,544.23 -0.664,-15.621 c -1.856,0.7 -3.848,1.063 -5.989,1.063 -11.687,0 -17.547,-7.41 -17.547,-22.242 V 475.879 H 909.48 v 52.953 c 0,2.469 -0.75,4.066 -2.234,4.77 -0.976,0.527 -2.812,0.789 -5.547,0.789 v 8.757 h 15.012 c 3.98,0 6.512,-1.41 7.574,-4.218 0.52,-1.321 0.793,-4.371 0.793,-9.129 4.246,10.058 10.899,15.078 19.922,15.078 1.777,0 3.762,-0.219 5.977,-0.649"/><path id="path22" style="fill:#1476c6;fill-opacity:1;fill-rule:nonzero;stroke:none" d="m 961.953,475.879 v 84.941 c 0,2.469 -0.754,4.071 -2.246,4.782 -0.977,0.519 -2.812,0.789 -5.547,0.789 v 8.769 h 16.731 c 5.562,0 8.347,-2.558 8.347,-7.691 v -51.207 l 22.872,26.886 h 19.39 l -26.559,-28.929 29.619,-38.34 h -21.12 l -24.202,35.332 v -35.332 h -17.285"/><path id="path24" style="fill:#1476c6;fill-opacity:1;fill-rule:nonzero;stroke:none" d="m 1070.29,515.488 c -0.44,5.782 -2.03,10.25 -4.76,13.41 -2.74,3.161 -6.27,4.743 -10.59,4.743 -4.41,0 -8.08,-1.582 -10.99,-4.743 -2.91,-3.16 -4.69,-7.628 -5.3,-13.41 z m 15.75,-5.277 v -5.449 h -47.39 c 0.44,-5.614 2.62,-10.043 6.56,-13.293 3.93,-3.25 9.09,-4.867 15.45,-4.867 6.98,0 13.56,1.609 19.75,4.808 v -13.269 c -6.56,-2.661 -14.17,-3.993 -22.85,-3.993 -11.25,0 -20.03,3.231 -26.36,9.704 -6.34,6.437 -9.5,15.386 -9.5,26.796 0,10.161 3.09,18.422 9.24,24.75 6.15,6.321 14.2,9.481 24.14,9.481 9.73,0 17.33,-3.02 22.79,-9.098 5.44,-6.062 8.17,-14.59 8.17,-25.57"/><path id="path26" style="fill:#1476c6;fill-opacity:1;fill-rule:nonzero;stroke:none" d="M 1122.73,565.121 V 543.148 H 1139 v -12.789 h -16.27 v -29.39 c 0,-4.93 0.75,-8.508 2.27,-10.707 1.5,-2.211 4.08,-3.321 7.73,-3.321 1.96,0 4.17,0.379 6.67,1.168 l 0.27,-12.148 c -3.89,-0.981 -7.87,-1.461 -11.94,-1.461 -8.05,0 -13.78,1.969 -17.18,5.949 -3.42,3.973 -5.12,10.461 -5.12,19.461 v 30.449 h -13.31 v 12.789 h 14.07 v 16.383 l 16.54,5.59"/><path id="path28" style="fill:#1476c6;fill-opacity:1;fill-rule:nonzero;stroke:none" d="m 1202.7,524.578 c -2.84,4.66 -6.92,6.992 -12.23,6.992 -5.84,0 -10.31,-2.23 -13.41,-6.738 -2.66,-3.953 -3.99,-8.98 -3.99,-15.051 0,-5.89 1.25,-10.832 3.73,-14.801 3,-4.671 7.3,-6.992 12.88,-6.992 5.65,0 9.95,2.371 12.88,7.121 2.48,4.071 3.72,9.082 3.72,15.071 0,5.621 -1.2,10.429 -3.58,14.398 z m -46.92,4.301 c 0,3.723 -2.07,5.57 -6.23,5.57 h -1.73 v 8.77 h 15.15 c 5.57,0 8.36,-2.559 8.36,-7.699 v -5.18 c 5.23,9.691 13.35,14.539 24.35,14.539 9.3,0 16.53,-3.617 21.66,-10.859 4.62,-6.372 6.93,-14.372 6.93,-23.989 0,-9.562 -2.36,-17.652 -7.04,-24.261 -5.34,-7.52 -12.55,-11.27 -21.68,-11.27 -9.92,0 -17.42,3.871 -22.48,11.609 v -38.07 h -17.29 v 80.84"/><path id="path30" style="fill:#1476c6;fill-opacity:1;fill-rule:nonzero;stroke:none" d="m 1253.69,475.879 h -17.13 v 84.93 c 0,2.472 -0.76,4.062 -2.26,4.781 -0.98,0.512 -2.88,0.801 -5.72,0.801 v 8.769 h 16.74 c 5.58,0 8.37,-2.558 8.37,-7.719 v -91.562"/><path id="path32" style="fill:#1476c6;fill-opacity:1;fill-rule:nonzero;stroke:none" d="m 1311.52,504.469 v 3.582 h -6.14 c -14.24,0 -21.36,-3.891 -21.36,-11.66 0,-3.121 1.08,-5.539 3.21,-7.313 2.13,-1.777 4.76,-2.648 7.87,-2.648 4.99,0 8.99,1.8 12.02,5.441 2.94,3.34 4.4,7.559 4.4,12.598 z m 16.61,-8.821 c 0,-4.867 0.22,-7.699 0.65,-8.488 0.79,-1.68 3.2,-2.512 7.24,-2.512 v -8.769 h -15.01 c -5.4,0 -8.2,2.562 -8.37,7.711 l -0.14,3.18 c -5.75,-8.418 -13.37,-12.622 -22.84,-12.622 -6.55,0 -11.96,1.934 -16.21,5.793 -4.25,3.848 -6.38,9.008 -6.38,15.489 0,10.191 5.37,16.879 16.1,20.09 5.51,1.589 14.96,2.39 28.35,2.39 v 0.922 c 0,9.527 -5.54,14.289 -16.64,14.289 -6.03,0 -12.48,-1.769 -19.3,-5.301 l -0.27,12.301 c 7.89,3.18 15.79,4.758 23.67,4.758 10.12,0 17.48,-2.43 22.09,-7.289 3.73,-3.891 5.99,-9.961 6.79,-18.18 0.18,-1.949 0.27,-9.859 0.27,-23.762"/><path id="path34" style="fill:#1476c6;fill-opacity:1;fill-rule:nonzero;stroke:none" d="m 1396.96,541.441 -1.32,-13.492 c -5.86,2.289 -10.39,3.449 -13.58,3.449 -6.57,0 -11.83,-2.027 -15.77,-6.058 -3.96,-4.031 -5.93,-9.238 -5.93,-15.61 0,-6.492 1.97,-11.789 5.93,-15.898 3.94,-4.121 9.11,-6.191 15.51,-6.191 4.33,0 9.31,1.48 14.9,4.449 l 0.66,-13.82 c -8.06,-2.75 -14.34,-4.122 -18.85,-4.122 -11.07,0 -19.87,3.282 -26.38,9.821 -6.5,6.551 -9.76,15.269 -9.76,26.14 0,9.903 3.35,18.18 10.03,24.821 6.68,6.64 15.34,9.949 25.98,9.949 2.91,0 9.11,-1.149 18.58,-3.438"/><path id="path36" style="fill:#1476c6;fill-opacity:1;fill-rule:nonzero;stroke:none" d="m 1453.22,515.488 c -0.45,5.782 -2.03,10.25 -4.76,13.41 -2.75,3.161 -6.27,4.743 -10.6,4.743 -4.41,0 -8.07,-1.582 -10.98,-4.743 -2.92,-3.16 -4.69,-7.628 -5.31,-13.41 z m 15.74,-5.277 v -5.449 h -47.39 c 0.44,-5.614 2.63,-10.043 6.56,-13.293 3.93,-3.25 9.09,-4.867 15.44,-4.867 6.99,0 13.57,1.609 19.77,4.808 v -13.269 c -6.56,-2.661 -14.18,-3.993 -22.85,-3.993 -11.25,0 -20.04,3.231 -26.37,9.704 -6.33,6.437 -9.49,15.386 -9.49,26.796 0,10.161 3.07,18.422 9.24,24.75 6.15,6.321 14.2,9.481 24.12,9.481 9.74,0 17.34,-3.02 22.79,-9.098 5.45,-6.062 8.18,-14.59 8.18,-25.57"/><path id="path38" style="fill:#e69f0a;fill-opacity:1;fill-rule:nonzero;stroke:none" d="m 1358.2,1023.79 0.04,1.3 -0.08,0.01 c -0.03,86.36 -91.56,156.72 -205.27,157.4 -30.84,0.17 -60.18,-4.8 -86.56,-13.87 48.73,-5.29 93.9,-22.52 129.49,-49.82 1.93,-1.49 3.81,-3 5.66,-4.53 50.43,-11.26 86.53,-40.32 90.02,-83.28 0.1,-1.03 0.04,-91.676 0.02,-127.211 -8.9,1.172 -17.75,2.246 -26.56,3.231 l -0.49,-103.434 c 155.18,-14.992 280.04,-39.523 351.6,-55.727 l 40.34,-11.941 23.28,-8.262 96.11,21.133 c -141.78,75.879 -283.67,120.781 -418.44,144.816 l 0.84,130.185"/><path id="path40" style="fill:#e69f0a;fill-opacity:1;fill-rule:nonzero;stroke:none" d="m 1009.9,914.824 c -0.04,35.645 -0.1,116.946 0.02,117.966 0.94,9.16 3.42,17.64 7.27,25.46 -26.71,-2.1 -53.213,-9.27 -72.288,-22 -0.273,-2.87 -0.468,-5.75 -0.507,-8.68 h -0.079 l 0.039,-1.36 -0.578,-116.022 c -9.07,-0.813 -17.957,-1.68 -26.797,-2.629 0,-29.485 0.032,-62.371 0.051,-92.079 81.192,2.586 159.549,1.043 233.129,-3.117 0.07,32.188 0.09,70.313 0.09,103.328 -48.61,1.829 -95.52,1.379 -140.35,-0.867"/><path id="path42" style="fill:#e69f0a;fill-opacity:1;fill-rule:nonzero;stroke:none" d="m 467.734,759.133 0.879,0.769 5.215,1.321 c -2.07,-0.727 -4.14,-1.418 -6.094,-2.09 z m 53.653,54.656 -34.258,-27.051 -66.973,-43.984 1.211,-1.211 c -0.371,-0.156 -0.597,-0.254 -0.597,-0.254 0.226,0.059 0.421,0.117 0.656,0.176 l 1.445,-1.465 -0.254,-0.117 37.422,12.246 c 114.512,30.117 230.195,47.891 342.383,56.926 l 0.273,82.324 C 626.875,860.43 515.48,812.188 515.48,812.188 c 1.954,0.539 3.922,1.074 5.907,1.601"/><path id="path44" style="fill:#1476c6;fill-opacity:1;fill-rule:nonzero;stroke:none" d="M 1035.79,1146.15 C 922.102,1146.82 829.121,1077.6 827.305,991.23 h -0.078 l 0.019,-1.367 -0.683,-178.789 66.25,4.043 c 0,0 -0.118,180.039 0,181.336 5.722,55.687 68.593,87.257 142.997,86.707 74.6,-0.3 134.03,-32.71 138.58,-88.519 0.16,-1.25 0,-184.067 0,-184.067 l 65.82,-5.047 0.9,181.907 0.02,1.336 h -0.08 c -0.01,86.33 -91.52,156.75 -205.26,157.38"/><path/></g></g></svg>