<svg id="logo_white" data-name="logo white" xmlns="http://www.w3.org/2000/svg" viewBox="0 0 558 148.479">
  <g id="Layer_1" data-name="Layer 1">
    <g id="arrow">
      <path id="top" d="M117.891,74.24h4.331L244.17,0h-122.2L0,74.24Z" fill="#fff" opacity="0.5"/>
      <path id="bottom" d="M126.278,158.16h-4.313L0,84H122.222l121.965,74.24Z" transform="translate(0 -9.76)" fill="#fff"/>
    </g>
    <g id="craft" transform="translate(199.828 37.862)">
      <path id="Path_249" data-name="Path 249" d="M243.689,52.35V84.52h33.894V73.561l12.647,2.563v6.1c0,9.634-3.288,12.188-13.531,12.188H244.546c-10.367,0-13.416-2.651-13.416-12.188V55.037c0-9.634,3.173-12.2,13.416-12.2h32.179c10.243,0,13.531,2.439,13.531,12.2V60.03L277.583,61.86V52.35Z" transform="translate(-231.13 -42.84)" fill="#fff"/>
      <path id="Path_250" data-name="Path 250" d="M321.34,42.84h46.453c8.29,0,12.073,2.811,12.073,10V65.077c0,7.07-3.783,9.872-12.073,9.872h-7.07l24.5,19.506H367.183L345.6,74.9H333.775V94.41H321.34Zm12.435,8.9V66h28.653c3.783,0,5.727-.725,5.727-4.145V55.885c0-3.411-1.944-4.145-5.727-4.145Z" transform="translate(-241.612 -42.84)" fill="#fff"/>
      <path id="Path_251" data-name="Path 251" d="M427.676,42.84H439.74l31.092,51.57H456.692l-6.469-11.339H416.09L409.629,94.41H397.07ZM445.1,73.685l-12.073-21.45-11.578,21.45Z" transform="translate(-250.411 -42.84)" fill="#fff"/>
      <path id="Path_252" data-name="Path 252" d="M495,42.84h54.734v9.271H507.683V65.519h22.67v9.634h-22.67V94.41H495Z" transform="translate(-261.79 -42.84)" fill="#fff"/>
      <path id="Path_253" data-name="Path 253" d="M603.2,94.41H590.64v-42.3H565.77V42.84h62.414v9.271H603.2Z" transform="translate(-270.013 -42.84)" fill="#fff"/>
    </g>
    <g id="development" transform="translate(202.343 101.638)">
      <path id="Path_254" data-name="Path 254" d="M231.58,115h7.009c4.1,0,6.24,1.944,6.24,5.161,0,3.535-2.307,5.241-6.885,5.241H231.58Zm5.824,8.458c3.217,0,4.817-.716,4.817-3.42,0-2.165-1.2-3.173-3.615-3.173h-4.472v6.593Z" transform="translate(-231.58 -115)" fill="#fff"/>
      <path id="Path_255" data-name="Path 255" d="M250.89,115h11.162v1.847h-8.608v2.263h5.011v1.768h-5.011v2.554h8.723v1.944H250.89Z" transform="translate(-233.824 -115)" fill="#fff"/>
      <path id="Path_256" data-name="Path 256" d="M266.19,115h2.872l4.419,7.548L277.635,115h2.651l-6.019,10.4H272.5Z" transform="translate(-235.601 -115)" fill="#fff"/>
      <path id="Path_257" data-name="Path 257" d="M285.39,115h11.145v1.847h-8.608v2.263H293v1.768h-5.011v2.554h8.732v1.944H285.39Z" transform="translate(-237.832 -115)" fill="#fff"/>
      <path id="Path_258" data-name="Path 258" d="M302.3,115h2.563v8.458h8.158V125.4H302.3Z" transform="translate(-239.797 -115)" fill="#fff"/>
      <path id="Path_259" data-name="Path 259" d="M320.084,115h8.043c2.042,0,2.7.468,2.7,2.457v5.5c0,1.971-.663,2.466-2.7,2.466h-8.043c-2.059,0-2.7-.495-2.7-2.466v-5.48C317.38,115.451,318.043,115,320.084,115Zm8.211,8.405v-6.487h-8.379V123.4Z" transform="translate(-241.549 -115)" fill="#fff"/>
      <path id="Path_260" data-name="Path 260" d="M337.56,115h9.36c1.679,0,2.439.539,2.439,2.015v2.316c0,1.449-.76,2.015-2.439,2.015h-6.858V125.4h-2.5Zm2.5,1.768v2.757h5.78c.76,0,1.158-.15,1.158-.84v-1.034c0-.689-.4-.84-1.158-.84Z" transform="translate(-243.894 -115)" fill="#fff"/>
      <path id="Path_261" data-name="Path 261" d="M355,115h2.042l5.091,6.187L367.2,115h2.033v10.4h-2.36v-7.159l-4.64,5.9h-.495l-4.693-5.727V125.4H355Z" transform="translate(-245.92 -115)" fill="#fff"/>
      <path id="Path_262" data-name="Path 262" d="M376.37,115h11.163v1.847h-8.608v2.263h5.02v1.768h-5.02v2.554h8.732v1.944H376.37Z" transform="translate(-248.404 -115)" fill="#fff"/>
      <path id="Path_263" data-name="Path 263" d="M393.286,115h1.768l8.838,6.911V115h2.28v10.4H404.4l-8.838-7.009V125.4H393.26Z" transform="translate(-250.366 -115)" fill="#fff"/>
      <path id="Path_264" data-name="Path 264" d="M419.108,125.385H416.58v-8.538h-5.02V115h12.594v1.865h-5.047Z" transform="translate(-252.492 -115)" fill="#fff"/>
    </g>
    <g id="corporation" transform="translate(382.865 101.638)">
      <path id="Path_265" data-name="Path 265" d="M440.766,116.9v6.487H447.6v-2.2l2.563.513v1.255c0,1.944-.672,2.466-2.731,2.466h-6.487c-2.095,0-2.713-.548-2.713-2.466v-5.48c0-1.944.645-2.457,2.713-2.457h6.487c2.059,0,2.731.495,2.731,2.457v1.008l-2.563.371v-1.918Z" transform="translate(-438.23 -115.002)" fill="#fff"/>
      <path id="Path_266" data-name="Path 266" d="M458.854,115H466.9c2.042,0,2.7.468,2.7,2.457v5.5c0,1.971-.663,2.466-2.7,2.466h-8.043c-2.059,0-2.7-.495-2.7-2.466v-5.48C456.15,115.451,456.813,115,458.854,115Zm8.211,8.405v-6.487h-8.4V123.4Z" transform="translate(-440.312 -115)" fill="#fff"/>
      <path id="Path_267" data-name="Path 267" d="M476.33,115h9.359c1.67,0,2.439.566,2.439,2.015v2.4c0,1.432-.769,2-2.439,2h-1.423l4.94,3.933h-3.641l-4.348-3.933h-2.386v3.933h-2.5Zm2.5,1.768v2.872h5.78c.76,0,1.158-.141,1.158-.831v-1.158c0-.689-.4-.84-1.158-.84Z" transform="translate(-442.657 -115)" fill="#fff"/>
      <path id="Path_268" data-name="Path 268" d="M494.409,115h9.359c1.67,0,2.43.539,2.43,2.015v2.316c0,1.449-.76,2.015-2.43,2.015H496.91V125.4H494.4Zm2.51,1.768v2.757h5.771c.769,0,1.158-.15,1.158-.84v-1.034c0-.689-.389-.84-1.158-.84Z" transform="translate(-444.757 -115)" fill="#fff"/>
      <path id="Path_269" data-name="Path 269" d="M514.313,115h8.034c2.042,0,2.7.468,2.7,2.457v5.5c0,1.971-.663,2.466-2.7,2.466h-8.034c-2.068,0-2.713-.495-2.713-2.466v-5.48C511.6,115.451,512.272,115,514.313,115Zm8.211,8.405v-6.487h-8.387V123.4Z" transform="translate(-446.755 -115)" fill="#fff"/>
      <path id="Path_270" data-name="Path 270" d="M531.78,115h9.368c1.671,0,2.431.566,2.431,2.015v2.4c0,1.432-.76,2-2.431,2h-1.432l4.94,3.933h-3.632l-4.357-3.933h-2.386v3.933h-2.5Zm2.5,1.768v2.872h5.78c.76,0,1.158-.141,1.158-.831v-1.158c0-.689-.4-.84-1.158-.84Z" transform="translate(-449.1 -115)" fill="#fff"/>
      <path id="Path_271" data-name="Path 271" d="M553.189,115h2.439l6.266,10.4H559.04l-1.3-2.289h-6.885l-1.3,2.289H547.02Zm3.535,6.187-2.43-4.331-2.333,4.331Z" transform="translate(-450.87 -115)" fill="#fff"/>
      <path id="Path_272" data-name="Path 272" d="M571.268,125.385h-2.536v-8.538H563.72V115h12.621v1.865H571.3Z" transform="translate(-452.811 -115)" fill="#fff"/>
      <path id="Path_273" data-name="Path 273" d="M581.66,115H584.2v10.4H581.66Z" transform="translate(-454.896 -115)" fill="#fff"/>
      <path id="Path_274" data-name="Path 274" d="M592.184,115h8.043c2.042,0,2.7.468,2.7,2.457v5.5c0,1.971-.663,2.466-2.7,2.466h-8.043c-2.059,0-2.7-.495-2.7-2.466v-5.48C589.48,115.451,590.143,115,592.184,115Zm8.211,8.405v-6.487h-8.378V123.4Z" transform="translate(-455.804 -115)" fill="#fff"/>
      <path id="Path_275" data-name="Path 275" d="M609.645,115h1.768l8.838,6.911V115h2.28v10.4h-1.768l-8.838-7.009V125.4H609.61Z" transform="translate(-458.143 -115)" fill="#fff"/>
    </g>
  </g>
</svg>
