<svg id="logo" xmlns="http://www.w3.org/2000/svg" viewBox="0 0 456 120.379">
  <g id="Layer_1" data-name="Layer 1">
    <g id="arrow">
      <path id="top" d="M95.58,60.19h3.511L197.959,0H98.883L0,60.19Z" fill="#28377d"/>
      <path id="bottom" d="M102.38,144.125h-3.5L0,84H99.091l98.883,60.19Z" transform="translate(0 -23.81)" fill="#3769a5"/>
    </g>
    <g id="craft" transform="translate(165.614 30.697)">
      <path id="Path_1" data-name="Path 1" d="M241.312,50.55V76.632h27.479V67.747l10.254,2.078v4.944c0,7.81-2.666,9.881-10.97,9.881H242.007c-8.4,0-10.877-2.15-10.877-9.881V52.728c0-7.81,2.572-9.888,10.877-9.888H268.1c8.3,0,10.97,1.978,10.97,9.888v4.048L268.792,58.26V50.55Z" transform="translate(-231.13 -42.84)" fill="#231f20"/>
      <path id="Path_2" data-name="Path 2" d="M321.34,42.84H359c6.721,0,9.788,2.279,9.788,8.111v9.917c0,5.732-3.067,8-9.788,8h-5.732l19.862,15.814H358.507l-17.5-15.85h-9.587V84.65H321.34Zm10.082,7.216V61.621h23.23c3.067,0,4.643-.588,4.643-3.361V53.416c0-2.766-1.577-3.361-4.643-3.361Z" transform="translate(-256.701 -42.84)" fill="#231f20"/>
      <path id="Path_3" data-name="Path 3" d="M421.884,42.84h9.781l25.208,41.81H445.408l-5.245-9.193H412.49l-5.238,9.193H397.07Zm14.13,25.007-9.788-17.39-9.387,17.39Z" transform="translate(-278.167 -42.84)" fill="#231f20"/>
      <path id="Path_4" data-name="Path 4" d="M495,42.84h44.375v7.517H505.282v10.87h18.379v7.81H505.282V84.65H495Z" transform="translate(-305.926 -42.84)" fill="#231f20"/>
      <path id="Path_5" data-name="Path 5" d="M596.116,84.65H585.934V50.357H565.77V42.84h50.6v7.517H596.116Z" transform="translate(-325.986 -42.84)" fill="#231f20"/>
    </g>
    <g id="development" transform="translate(165.937 82.402)">
      <path id="Path_6" data-name="Path 6" d="M231.58,115h5.682c3.325,0,5.059,1.576,5.059,4.185,0,2.866-1.87,4.249-5.582,4.249H231.58Zm4.722,6.857c2.608,0,3.905-.58,3.905-2.773,0-1.756-.974-2.572-2.931-2.572h-3.626v5.345Z" transform="translate(-231.58 -115)" fill="#231f20"/>
      <path id="Path_7" data-name="Path 7" d="M250.89,115h9.05v1.5h-6.979v1.834h4.063v1.433h-4.063v2.071h7.072v1.576H250.89Z" transform="translate(-237.054 -115)" fill="#231f20"/>
      <path id="Path_8" data-name="Path 8" d="M266.19,115h2.329l3.583,6.119L275.469,115h2.15l-4.88,8.434h-1.433Z" transform="translate(-241.391 -115)" fill="#231f20"/>
      <path id="Path_9" data-name="Path 9" d="M285.39,115h9.036v1.5h-6.979v1.834h4.113v1.433H287.5v2.071h7.079v1.576H285.39Z" transform="translate(-246.833 -115)" fill="#231f20"/>
      <path id="Path_10" data-name="Path 10" d="M302.3,115h2.078v6.857h6.614v1.576H302.3Z" transform="translate(-251.626 -115)" fill="#231f20"/>
      <path id="Path_11" data-name="Path 11" d="M319.573,115h6.521c1.655,0,2.193.38,2.193,1.992v4.457c0,1.6-.537,2-2.193,2h-6.521c-1.67,0-2.193-.4-2.193-2v-4.443C317.38,115.365,317.918,115,319.573,115Zm6.657,6.814v-5.259h-6.793v5.259Z" transform="translate(-255.901 -115)" fill="#231f20"/>
      <path id="Path_12" data-name="Path 12" d="M337.56,115h7.588c1.361,0,1.978.437,1.978,1.634v1.877c0,1.175-.616,1.634-1.978,1.634h-5.561v3.289H337.56Zm2.028,1.433v2.236h4.686c.616,0,.939-.122.939-.681v-.838c0-.559-.322-.681-.939-.681Z" transform="translate(-261.621 -115)" fill="#231f20"/>
      <path id="Path_13" data-name="Path 13" d="M355,115h1.655l4.127,5.016L364.888,115h1.648v8.434h-1.913v-5.8l-3.762,4.786h-.4l-3.8-4.643v5.661H355Z" transform="translate(-266.564 -115)" fill="#231f20"/>
      <path id="Path_14" data-name="Path 14" d="M376.37,115h9.05v1.5h-6.979v1.834h4.07v1.433h-4.07v2.071h7.079v1.576h-9.15Z" transform="translate(-272.622 -115)" fill="#231f20"/>
      <path id="Path_15" data-name="Path 15" d="M393.281,115h1.433l7.165,5.6V115h1.849v8.434H402.3l-7.165-5.682v5.682h-1.87Z" transform="translate(-277.41 -115)" fill="#231f20"/>
      <path id="Path_16" data-name="Path 16" d="M417.679,123.419H415.63V116.5h-4.07V115h10.211v1.512h-4.091Z" transform="translate(-282.597 -115)" fill="#231f20"/>
    </g>
    <g id="corporation" transform="translate(314.01 82.402)">
      <path id="Path_17" data-name="Path 17" d="M440.286,116.546v5.259h5.539v-1.784l2.078.416v1.017c0,1.576-.545,2-2.214,2H440.43c-1.7,0-2.2-.444-2.2-2v-4.443c0-1.576.523-1.992,2.2-1.992h5.259c1.67,0,2.214.4,2.214,1.992v.817l-2.078.3v-1.555Z" transform="translate(-438.23 -115.006)" fill="#231f20"/>
      <path id="Path_18" data-name="Path 18" d="M458.343,115h6.521c1.655,0,2.193.38,2.193,1.992v4.457c0,1.6-.537,2-2.193,2h-6.521c-1.67,0-2.193-.4-2.193-2v-4.443C456.15,115.365,456.687,115,458.343,115ZM465,121.814v-5.259h-6.807v5.259Z" transform="translate(-443.31 -115)" fill="#231f20"/>
      <path id="Path_19" data-name="Path 19" d="M476.33,115h7.588c1.354,0,1.978.459,1.978,1.634v1.949c0,1.161-.623,1.619-1.978,1.619h-1.154l4.005,3.189h-2.952l-3.525-3.189h-1.935v3.189H476.33Zm2.028,1.433v2.329h4.686c.616,0,.939-.115.939-.674v-.939c0-.559-.323-.681-.939-.681Z" transform="translate(-449.03 -115)" fill="#231f20"/>
      <path id="Path_20" data-name="Path 20" d="M494.407,115H502c1.354,0,1.97.437,1.97,1.634v1.877c0,1.175-.616,1.634-1.97,1.634h-5.56v3.289H494.4Zm2.035,1.433v2.236h4.679c.623,0,.939-.122.939-.681v-.838c0-.559-.315-.681-.939-.681Z" transform="translate(-454.152 -115)" fill="#231f20"/>
      <path id="Path_21" data-name="Path 21" d="M513.8,115h6.513c1.655,0,2.193.38,2.193,1.992v4.457c0,1.6-.537,2-2.193,2H513.8c-1.677,0-2.2-.4-2.2-2v-4.443C511.6,115.365,512.145,115,513.8,115Zm6.657,6.814v-5.259h-6.8v5.259Z" transform="translate(-459.027 -115)" fill="#231f20"/>
      <path id="Path_22" data-name="Path 22" d="M531.78,115h7.6c1.354,0,1.971.459,1.971,1.634v1.949c0,1.161-.616,1.619-1.971,1.619h-1.161l4.006,3.189h-2.945l-3.532-3.189h-1.935v3.189H531.78Zm2.028,1.433v2.329h4.686c.616,0,.939-.115.939-.674v-.939c0-.559-.322-.681-.939-.681Z" transform="translate(-464.748 -115)" fill="#231f20"/>
      <path id="Path_23" data-name="Path 23" d="M552.021,115H554l5.08,8.434h-2.314l-1.053-1.856H550.13l-1.053,1.856H547.02Zm2.866,5.016-1.97-3.511-1.892,3.511Z" transform="translate(-469.067 -115)" fill="#231f20"/>
      <path id="Path_24" data-name="Path 24" d="M569.839,123.419h-2.057V116.5H563.72V115h10.232v1.512h-4.084Z" transform="translate(-473.801 -115)" fill="#231f20"/>
      <path id="Path_25" data-name="Path 25" d="M581.66,115h2.057v8.434H581.66Z" transform="translate(-478.886 -115)" fill="#231f20"/>
      <path id="Path_26" data-name="Path 26" d="M591.673,115h6.521c1.655,0,2.193.38,2.193,1.992v4.457c0,1.6-.538,2-2.193,2h-6.521c-1.669,0-2.193-.4-2.193-2v-4.443C589.48,115.365,590.018,115,591.673,115Zm6.657,6.814v-5.259h-6.793v5.259Z" transform="translate(-481.103 -115)" fill="#231f20"/>
      <path id="Path_27" data-name="Path 27" d="M609.639,115h1.433l7.165,5.6V115h1.849v8.434h-1.433l-7.166-5.682v5.682H609.61Z" transform="translate(-486.809 -115)" fill="#231f20"/>
    </g>
  </g>
</svg>
